<?xml version="1.0" encoding="UTF-8" standalone="no"?>
<svg
   xmlns:dc="http://purl.org/dc/elements/1.1/"
   xmlns:cc="http://creativecommons.org/ns#"
   xmlns:rdf="http://www.w3.org/1999/02/22-rdf-syntax-ns#"
   xmlns:svg="http://www.w3.org/2000/svg"
   xmlns="http://www.w3.org/2000/svg"
   id="svg14"
   preserveAspectRatio="xMidYMid meet"
   viewBox="0 0 1919.000000 1919.000000"
   height="22.191"
   width="22.191"
   version="1.0">
  <defs
     id="defs18" />
  <metadata
     id="metadata2">
Created by potrace 1.16, written by Peter Selinger 2001-2019
<rdf:RDF>
  <cc:Work
     rdf:about="">
    <dc:format>image/svg+xml</dc:format>
    <dc:type
       rdf:resource="http://purl.org/dc/dcmitype/StillImage" />
  </cc:Work>
</rdf:RDF>
</metadata>
  <g
     id="g12"
     stroke="none"
     fill="#000000"
     transform="translate(0.000000,1919.000000) scale(0.100000,-0.100000)">
    <path
       id="path4"
       d="M3055 17725 c-194 -28 -317 -62 -510 -143 -210 -89 -458 -271 -633 -465 -190 -210 -343 -501 -408 -774 -86 -367 -68 -735 52 -1060 162 -436 457 -780 864 -1005 124 -69 330 -146 461 -172 206 -42 290 -49 474 -43 283 10 524 71 779 199 329 165 632 471 804 813 193 382 243 836 140 1270 -22 95 -91 282 -138 375 -214 423 -576 746 -1024 912 -252 93 -598 130 -861 93z" />
    <path
       id="path6"
       d="M15655 17725 c-417 -62 -764 -234 -1056 -525 -194 -193 -318 -383 -417 -640 -86 -222 -122 -415 -122 -660 0 -364 90 -675 290 -995 158 -254 433 -506 698 -639 105 -53 276 -122 352 -141 396 -102 823 -80 1169 61 200 82 358 174 500 293 430 360 669 867 671 1419 0 263 -45 478 -158 747 -60 143 -186 341 -294 461 -320 354 -705 559 -1162 620 -133 17 -349 17 -471 -1z" />
    <path
       id="path8"
       d="M3115 5124 c-271 -41 -330 -56 -504 -125 -251 -100 -410 -207 -617 -413 -166 -166 -269 -307 -356 -486 -249 -513 -252 -1093 -8 -1605 105 -219 233 -389 429 -568 278 -255 594 -402 993 -462 191 -29 442 -16 664 34 456 103 897 420 1138 819 191 316 275 613 276 970 0 358 -88 667 -278 977 -68 112 -94 146 -201 264 -265 292 -624 494 -1009 567 -109 21 -174 27 -317 29 -99 2 -193 1 -210 -1z" />
    <path
       id="path10"
       d="M15715 5124 c-428 -64 -711 -184 -1002 -427 -84 -70 -224 -216 -290 -302 -126 -165 -254 -433 -307 -645 -46 -180 -58 -300 -53 -501 7 -261 37 -416 121 -625 53 -134 79 -185 152 -306 78 -127 131 -195 254 -318 208 -210 433 -353 705 -449 320 -113 673 -131 1031 -52 88 20 176 50 314 106 253 104 550 340 731 580 240 317 369 705 369 1105 0 368 -109 724 -314 1025 -203 298 -494 538 -811 670 -242 100 -413 136 -685 140 -102 2 -198 1 -215 -1z" />
  </g>
</svg>
